<svg width="119" height="87" viewBox="0 0 119 87" fill="none" xmlns="http://www.w3.org/2000/svg">
<path d="M-102.533 79.8751C-102.997 79.8751 -103.427 79.6356 -103.673 79.2425L-119.069 54.5603C-119.196 54.3571 -119.267 54.1235 -119.273 53.884C-119.279 53.6444 -119.221 53.4075 -119.105 53.198C-118.988 52.9884 -118.818 52.8138 -118.611 52.6923C-118.405 52.5708 -118.17 52.5068 -117.93 52.5069L-87.3291 52.5026C-87.0899 52.5021 -86.8549 52.5655 -86.6485 52.6863C-86.4421 52.8071 -86.2718 52.9809 -86.1551 53.1897C-86.0384 53.3985 -85.9797 53.6347 -85.985 53.8738C-85.9903 54.1129 -86.0595 54.3462 -86.1853 54.5496L-101.391 79.2371C-101.51 79.4319 -101.678 79.5928 -101.877 79.7046C-102.077 79.8164 -102.302 79.8755 -102.53 79.8762L-102.533 79.8751ZM-115.51 55.1929L-102.541 75.9841L-89.7326 55.1886L-115.51 55.1929Z" fill="#97978D"/>
<path d="M-133.233 79.8751C-133.696 79.8751 -134.124 79.6367 -134.37 79.2457L-149.847 54.5636C-149.975 54.3604 -150.046 54.1267 -150.053 53.8868C-150.059 53.647 -150.002 53.4097 -149.886 53.1997C-149.769 52.9897 -149.599 52.8147 -149.392 52.6928C-149.186 52.571 -148.95 52.5068 -148.71 52.5069L-117.93 52.5026C-117.691 52.5028 -117.456 52.5668 -117.25 52.6881C-117.044 52.8094 -116.873 52.9835 -116.757 53.1925C-116.641 53.4015 -116.582 53.6378 -116.588 53.8769C-116.593 54.116 -116.662 54.3494 -116.788 54.5528L-132.092 79.2393C-132.213 79.4333 -132.38 79.5934 -132.579 79.7047C-132.778 79.8159 -133.003 79.8746 -133.231 79.8751H-133.233ZM-146.285 55.1929L-133.241 75.9959L-120.342 55.1886L-146.285 55.1929Z" fill="#97978D"/>
<path d="M-133.213 79.8751H-163.791C-164.03 79.8755 -164.264 79.8123 -164.47 79.6918C-164.676 79.5714 -164.847 79.3982 -164.963 79.19C-165.08 78.9818 -165.139 78.7462 -165.135 78.5076C-165.13 78.2689 -165.062 78.0358 -164.937 77.8324L-149.856 53.1459C-149.737 52.9505 -149.57 52.7889 -149.37 52.6763C-149.171 52.5637 -148.947 52.5039 -148.718 52.5026H-148.71C-148.247 52.5026 -147.819 52.741 -147.573 53.132L-132.205 77.6412C-132.033 77.8349 -131.921 78.0742 -131.882 78.3303C-131.843 78.5864 -131.879 78.8484 -131.985 79.0845C-132.092 79.3207 -132.264 79.5209 -132.482 79.6612C-132.7 79.8015 -132.954 79.8758 -133.213 79.8751ZM-161.398 77.1901H-135.659L-148.696 56.3969L-161.398 77.1901Z" fill="#97978D"/>
<path d="M-102.513 79.8751L-133.233 79.8751C-133.472 79.8749 -133.707 79.8109 -133.913 79.6896C-134.119 79.5683 -134.289 79.3942 -134.406 79.1852C-134.522 78.9762 -134.581 78.7399 -134.575 78.5008C-134.57 78.2616 -134.5 78.0283 -134.375 77.8249L-119.072 53.1384C-118.951 52.9443 -118.784 52.784 -118.584 52.6727C-118.385 52.5615 -118.16 52.5029 -117.932 52.5026H-117.93C-117.466 52.5026 -117.036 52.7421 -116.79 53.1352L-101.504 77.6434C-101.333 77.8372 -101.221 78.0764 -101.183 78.3323C-101.144 78.5881 -101.18 78.8496 -101.287 79.0854C-101.393 79.3212 -101.566 79.5212 -101.783 79.6613C-102.001 79.8014 -102.254 79.8756 -102.513 79.8751ZM-130.822 77.1901H-104.953L-117.927 56.3883L-130.822 77.1901Z" fill="#97978D"/>
<path d="M-72.2257 79.8751L-102.533 79.8751C-102.772 79.8746 -103.006 79.8105 -103.212 79.6895C-103.418 79.5684 -103.588 79.3948 -103.704 79.1863C-103.821 78.9779 -103.88 78.7422 -103.875 78.5035C-103.87 78.2648 -103.802 78.0317 -103.677 77.8281L-88.4728 53.1416C-88.3528 52.9464 -88.1847 52.7852 -87.9847 52.6734C-87.7846 52.5615 -87.5593 52.5027 -87.3301 52.5026H-87.328C-87.0984 52.5032 -86.8728 52.5626 -86.6727 52.6752C-86.4727 52.7879 -86.3048 52.9499 -86.1853 53.1459L-71.2119 77.653C-71.0423 77.8472 -70.9323 78.0861 -70.8951 78.3412C-70.8578 78.5962 -70.8949 78.8566 -71.0019 79.0911C-71.1089 79.3256 -71.2813 79.5243 -71.4983 79.6634C-71.7154 79.8024 -71.9679 79.8759 -72.2257 79.8751ZM-100.13 77.1901H-74.64L-87.3334 56.414L-100.13 77.1901Z" fill="#97978D"/>
<path d="M-117.759 127.497C-117.939 127.497 -118.117 127.461 -118.283 127.391C-118.448 127.32 -118.598 127.218 -118.723 127.088L-141.754 103.277L-164.784 79.4659C-164.967 79.2764 -165.091 79.0373 -165.139 78.7781C-165.187 78.519 -165.158 78.2514 -165.055 78.0088C-164.952 77.7661 -164.78 77.5591 -164.561 77.4135C-164.341 77.2679 -164.083 77.1902 -163.82 77.1901H-72.2459C-71.9832 77.1904 -71.7263 77.2678 -71.5071 77.4126C-71.2879 77.5575 -71.1161 77.7635 -71.0128 78.0051C-70.9096 78.2466 -70.8795 78.5132 -70.9263 78.7717C-70.9731 79.0303 -71.0947 79.2694 -71.2761 79.4594L-94.0326 103.271L-116.789 127.082C-117.04 127.346 -117.391 127.496 -117.755 127.497H-117.759ZM-160.654 79.8751L-117.765 124.217L-75.3862 79.8751H-160.654Z" fill="#97978D"/>
<path d="M-117.759 127.497C-118.042 127.497 -118.318 127.408 -118.548 127.241C-118.777 127.075 -118.947 126.84 -119.035 126.571L-134.51 78.9482C-134.568 78.7796 -134.593 78.601 -134.581 78.4229C-134.57 78.2448 -134.523 78.0707 -134.444 77.9109C-134.364 77.751 -134.254 77.6087 -134.119 77.4921C-133.984 77.3755 -133.827 77.287 -133.657 77.2318C-133.487 77.1766 -133.308 77.1558 -133.13 77.1706C-132.952 77.1854 -132.779 77.2356 -132.621 77.3181C-132.463 77.4006 -132.322 77.5139 -132.208 77.6512C-132.094 77.7886 -132.009 77.9473 -131.957 78.1181L-116.483 125.74C-116.418 125.942 -116.401 126.156 -116.434 126.365C-116.467 126.574 -116.549 126.772 -116.674 126.944C-116.798 127.115 -116.961 127.255 -117.15 127.351C-117.339 127.447 -117.547 127.497 -117.759 127.497Z" fill="#97978D"/>
<path d="M-117.714 127.497C-117.925 127.497 -118.133 127.447 -118.322 127.351C-118.51 127.256 -118.673 127.117 -118.798 126.947C-118.922 126.776 -119.005 126.579 -119.039 126.37C-119.073 126.162 -119.058 125.948 -118.994 125.747L-103.814 78.1245C-103.705 77.7851 -103.467 77.5026 -103.151 77.339C-102.834 77.1755 -102.466 77.1443 -102.126 77.2524C-101.787 77.3605 -101.504 77.599 -101.341 77.9154C-101.177 78.2318 -101.146 78.6003 -101.254 78.9397L-116.435 126.563C-116.618 127.133 -117.145 127.497 -117.714 127.497Z" fill="#97978D"/>
<path d="M-201.784 63.3593C-202.311 64.9571 -203.289 66.0464 -204.719 66.6271C-206.148 67.2079 -207.72 67.215 -209.435 66.65C-211.145 66.0864 -212.419 65.0707 -213.256 63.6036C-214.093 62.1364 -214.232 60.5543 -213.674 58.8579C-213.311 57.76 -212.73 56.9079 -211.929 56.3014C-210.37 55.1214 -208.473 54.9 -206.24 55.6364C-204.409 56.24 -203.075 57.2779 -202.239 58.75C-201.408 60.2207 -201.256 61.7571 -201.784 63.3593ZM-206.404 57.6643C-207.824 57.1964 -209.071 57.0807 -210.143 57.3179C-211.344 57.5693 -212.174 58.3886 -212.632 59.7764C-212.952 60.7486 -213.031 61.5693 -212.869 62.2393C-212.578 62.6929 -212.102 63.1364 -211.443 63.5714C-210.78 64.0129 -209.998 64.3821 -209.096 64.6793C-208.194 64.9764 -207.343 65.1279 -206.541 65.1329C-205.736 65.1393 -204.986 64.9229 -204.292 64.4836C-203.594 64.0457 -203.099 63.385 -202.807 62.5021C-202.518 61.6236 -202.46 60.8371 -202.636 60.1421C-203.223 59.125 -204.479 58.2993 -206.404 57.6643Z" fill="#6B7280"/>
<path d="M-200.488 46.1557L-197.686 47.6293C-196.859 48.0643 -196.133 48.3486 -195.509 48.4829L-195.397 48.5407L-196.407 50.4614L-196.519 50.4029C-196.981 49.96 -197.625 49.5207 -198.452 49.0857L-200.928 47.7843C-201.516 47.475 -201.988 47.3272 -202.344 47.3393C-202.699 47.3472 -202.999 47.5843 -203.244 48.05C-203.489 48.5157 -203.554 49.2793 -203.439 50.3407L-200.513 51.8793C-199.511 52.4057 -198.592 52.6979 -197.755 52.7543L-197.644 52.8129L-198.784 54.9814L-198.895 54.9229C-199.317 54.4786 -199.957 54.0307 -200.815 53.5793L-203.447 52.1957C-203.891 51.9621 -204.374 51.8221 -204.894 51.7764C-205.421 51.7329 -205.819 51.7907 -206.086 51.95L-206.279 51.8736L-205.695 49.5879L-205.49 49.5786C-205.064 49.6972 -204.644 49.84 -204.231 50.0071C-204.356 49.4636 -204.44 49.0771 -204.481 48.85C-204.529 48.6243 -204.548 48.3257 -204.536 47.9543C-204.53 47.585 -204.459 47.2693 -204.321 47.0079C-203.763 45.9457 -202.941 45.5021 -201.855 45.6786C-202.219 44.1307 -202.244 43.0564 -201.928 42.4557C-201.548 41.7329 -201.013 41.2972 -200.323 41.1486C-199.635 40.9929 -198.847 41.1493 -197.959 41.6157L-195.732 42.7871C-194.752 43.3021 -193.831 43.59 -192.966 43.6493L-192.856 43.7079L-194.003 45.8893L-194.114 45.8307C-194.536 45.3864 -195.176 44.9386 -196.034 44.4879L-198.405 43.2407C-199.611 42.6064 -200.412 42.6657 -200.809 43.4193C-201.141 44.0507 -201.231 44.8729 -201.08 45.8864C-200.82 45.995 -200.623 46.085 -200.488 46.1557Z" fill="#6B7280"/>
<path d="M-187.265 36.0364L-187.169 36.1172L-188.301 37.4693L-188.397 37.3886C-188.875 36.7636 -189.857 35.8293 -191.343 34.5843L-194.347 32.0686C-195.724 30.9157 -196.801 30.1136 -197.577 29.6614L-197.674 29.5807L-196.433 27.8579L-185.201 29.2743L-189.564 25.6214C-190.035 25.2264 -190.574 24.82 -191.18 24.4021C-191.782 23.9871 -192.23 23.7286 -192.521 23.625L-192.618 23.5443L-191.438 22.1357L-191.341 22.2164C-190.864 22.8414 -189.881 23.7757 -188.396 25.02L-185.03 27.8393C-184.494 28.2879 -183.904 28.7507 -183.257 29.2279C-182.611 29.6979 -182.214 29.9636 -182.066 30.0236L-182.986 31.3993L-195.084 29.9021L-190.19 34.0007C-189.002 34.9957 -188.027 35.6743 -187.265 36.0364Z" fill="#6B7280"/>
<path d="M-177.504 23.3179L-178.611 22.1007C-179.084 22.2907 -179.551 22.5964 -180.013 23.0172C-180.471 23.4343 -180.736 23.8122 -180.808 24.15C-180.76 24.4657 -180.586 24.7893 -180.284 25.12C-179.979 25.455 -179.649 25.6336 -179.296 25.6579C-178.941 25.6814 -178.63 25.5707 -178.361 25.3257C-178.088 25.0772 -177.874 24.7529 -177.719 24.3529C-177.564 23.9529 -177.493 23.6079 -177.504 23.3179ZM-176.71 23.7736C-176.707 24.8293 -177.037 25.6579 -177.699 26.26C-178.358 26.8593 -179.004 27.1879 -179.637 27.245C-180.27 27.3021 -180.876 27.0129 -181.456 26.3764C-182.032 25.7436 -182.224 25.0864 -182.031 24.4057C-181.839 23.725 -181.337 23.0157 -180.526 22.2771L-179.356 21.2821L-180.027 20.5457C-180.441 20.0907 -180.89 19.8207 -181.373 19.735C-181.856 19.6564 -182.328 19.8257 -182.786 20.2436C-183.111 20.5593 -183.355 21.3729 -183.518 22.685C-184.06 22.5936 -184.614 22.3393 -185.18 21.9229C-184.576 20.8679 -183.919 20.0164 -183.205 19.3671C-182.489 18.715 -181.744 18.3771 -180.974 18.3536C-180.206 18.3343 -179.511 18.6664 -178.889 19.3507L-176.912 21.5229C-176.547 21.9022 -176.156 22.2043 -175.738 22.4293C-175.32 22.6543 -174.957 22.7464 -174.649 22.705L-174.502 22.8114L-175.585 24.4057C-175.949 24.2321 -176.324 24.0207 -176.71 23.7736Z" fill="#6B7280"/>
<path d="M-169.511 12.7836L-167.728 15.4C-167.201 16.1722 -166.694 16.7643 -166.206 17.175L-166.135 17.2793L-167.928 18.5007L-167.998 18.3972C-168.198 17.7893 -168.561 17.0993 -169.088 16.3264L-170.663 14.0157C-171.037 13.4672 -171.384 13.1143 -171.706 12.9579C-172.023 12.7986 -172.399 12.8672 -172.833 13.1636C-173.268 13.46 -173.684 14.1036 -174.081 15.0943L-172.219 17.8264C-171.581 18.7614 -170.906 19.4507 -170.194 19.8936L-170.123 19.9972L-172.147 21.3772L-172.218 21.2736C-172.382 20.6829 -172.737 19.9872 -173.284 19.1864L-174.958 16.7286C-175.241 16.3136 -175.601 15.9643 -176.039 15.6793C-176.484 15.3929 -176.862 15.2579 -177.174 15.2736L-177.308 15.115L-175.719 13.3714L-175.534 13.4593C-175.214 13.7643 -174.91 14.0872 -174.624 14.4286C-174.479 13.8893 -174.371 13.51 -174.301 13.2893C-174.238 13.0679 -174.114 12.7957 -173.929 12.4729C-173.751 12.1493 -173.54 11.9043 -173.296 11.7379C-172.304 11.0622 -171.37 11.0564 -170.494 11.7214C-170.09 10.1836 -169.607 9.22358 -169.046 8.84072C-168.371 8.38072 -167.694 8.24715 -167.015 8.43929C-166.335 8.62501 -165.712 9.13215 -165.147 9.96144L-163.73 12.0407C-163.106 12.9557 -162.428 13.6414 -161.693 14.1L-161.622 14.2036L-163.659 15.5914L-163.729 15.4879C-163.894 14.8972 -164.249 14.2014 -164.795 13.4007L-166.304 11.1872C-167.071 10.0607 -167.806 9.73787 -168.51 10.2172C-169.099 10.6186 -169.565 11.3029 -169.907 12.2679C-169.729 12.4857 -169.597 12.6579 -169.511 12.7836Z" fill="#6B7280"/>
<path d="M-155.825 9.31929L-156.545 7.84001C-157.051 7.88929 -157.586 8.05072 -158.147 8.32358C-158.704 8.59501 -159.065 8.88215 -159.229 9.18644C-159.272 9.50286 -159.196 9.86215 -159.001 10.265C-158.803 10.6722 -158.537 10.9364 -158.204 11.0593C-157.871 11.1814 -157.54 11.1636 -157.213 11.0043C-156.881 10.8429 -156.584 10.5922 -156.324 10.2514C-156.062 9.91072 -155.896 9.60072 -155.825 9.31929ZM-155.192 9.98001C-155.487 10.9936 -156.037 11.6957 -156.842 12.0872C-157.643 12.4764 -158.355 12.61 -158.979 12.4864C-159.602 12.3629 -160.102 11.9143 -160.479 11.14C-160.853 10.37 -160.852 9.68572 -160.476 9.08715C-160.099 8.48858 -159.418 7.94929 -158.432 7.46929L-157.029 6.84429L-157.465 5.94858C-157.734 5.39572 -158.089 5.01001 -158.528 4.79144C-158.97 4.58001 -159.47 4.60929 -160.027 4.88072C-160.428 5.09215 -160.891 5.80429 -161.417 7.01787C-161.912 6.77715 -162.371 6.37715 -162.797 5.81787C-161.921 4.97572 -161.049 4.34429 -160.182 3.92215C-159.311 3.49786 -158.502 3.38358 -157.756 3.57858C-157.014 3.77572 -156.441 4.29072 -156.036 5.12215L-154.751 7.76358C-154.508 8.23072 -154.217 8.63072 -153.88 8.96429C-153.543 9.29786 -153.22 9.48858 -152.913 9.53644L-152.802 9.67929L-154.291 10.9043C-154.591 10.635 -154.891 10.3264 -155.192 9.98001Z" fill="#6B7280"/>
<path d="M-151.636 -0.657848L-150.839 1.60429C-150.534 1.13715 -150.295 0.786436 -150.121 0.553579C-149.948 0.320008 -149.709 0.0664372 -149.404 -0.207134C-149.1 -0.48642 -148.789 -0.682134 -148.469 -0.794991C-147.656 -1.08071 -146.94 -1.04642 -146.319 -0.691421C-145.7 -0.340706 -145.224 0.307865 -144.891 1.25429L-144.055 3.62787C-143.687 4.67215 -143.207 5.50929 -142.614 6.14072L-142.573 6.25929L-144.905 7.08072L-144.946 6.96215C-144.949 6.34786 -145.111 5.58287 -145.433 4.66929L-146.323 2.14215C-146.546 1.50644 -146.814 1.06072 -147.123 0.804295C-147.428 0.546437 -147.886 0.525723 -148.499 0.741437C-149.106 0.955723 -149.776 1.50644 -150.506 2.39501L-149.408 5.51358C-149.032 6.58072 -148.556 7.42001 -147.981 8.03072L-147.939 8.14929L-150.251 8.96287L-150.292 8.84501C-150.295 8.23072 -150.457 7.46572 -150.779 6.55144L-153.377 -0.82642C-153.686 -1.70356 -154.179 -2.29642 -154.856 -2.60571L-154.926 -2.80071L-152.859 -3.97428L-152.702 -3.84142C-152.624 -3.51428 -152.268 -2.45285 -151.636 -0.657848Z" fill="#6B7280"/>
<path d="M-134.924 -6.68213C-135.116 -6.33213 -135.176 -5.93571 -135.104 -5.49356C-135.032 -5.05142 -134.864 -4.70499 -134.599 -4.45428C-134.333 -4.19856 -134.004 -4.00499 -133.614 -3.87428C-133.229 -3.74285 -132.808 -3.62142 -132.351 -3.51142C-131.896 -3.40642 -131.436 -3.28142 -130.975 -3.13785C-130.518 -2.99285 -130.086 -2.80928 -129.681 -2.58571C-129.281 -2.36142 -128.934 -2.03428 -128.639 -1.60356C-128.345 -1.17285 -128.148 -0.65142 -128.049 -0.0399914C-127.859 1.12572 -128.089 2.06786 -128.739 2.78644C-129.39 3.50572 -130.366 3.97072 -131.668 4.18287C-132.969 4.39501 -134.197 4.21572 -135.351 3.64572C-135.441 2.88287 -135.342 2.18858 -135.054 1.56358C-134.504 2.03715 -133.871 2.40001 -133.158 2.65358C-132.44 2.90072 -131.782 2.97572 -131.184 2.87786C-130.587 2.78072 -130.096 2.56644 -129.711 2.23429C-129.481 1.84287 -129.411 1.36572 -129.504 0.802151C-129.596 0.234294 -129.817 -0.203563 -130.166 -0.510706C-130.521 -0.822135 -130.93 -1.04142 -131.395 -1.16999C-131.861 -1.30356 -132.368 -1.44999 -132.917 -1.60999C-133.472 -1.77356 -133.986 -1.94928 -134.461 -2.13642C-134.929 -2.31928 -135.35 -2.62213 -135.723 -3.04499C-136.091 -3.46856 -136.326 -3.99856 -136.43 -4.63499C-136.602 -5.69356 -136.371 -6.53856 -135.736 -7.16999C-135.101 -7.80642 -134.241 -8.21356 -133.154 -8.39071C-132.066 -8.56785 -130.909 -8.48428 -129.681 -8.14071C-129.696 -7.43999 -129.801 -6.76285 -129.993 -6.10856C-130.541 -6.50285 -131.148 -6.80285 -131.814 -7.00856C-132.475 -7.20999 -133.082 -7.26571 -133.636 -7.17571C-134.189 -7.08571 -134.619 -6.92071 -134.924 -6.68213Z" fill="#6B7280"/>
<path d="M-122.797 -6.47L-122.706 -4.07286C-122.277 -4.42857 -121.945 -4.69286 -121.71 -4.86429C-121.475 -5.03571 -121.171 -5.20714 -120.799 -5.37857C-120.426 -5.555 -120.071 -5.65 -119.731 -5.66286C-118.871 -5.69571 -118.197 -5.45 -117.709 -4.92714C-117.222 -4.40929 -116.959 -3.64857 -116.921 -2.64572L-116.826 -0.130714C-116.784 0.975714 -116.574 1.91786 -116.195 2.69571L-116.19 2.82143L-118.661 2.915L-118.665 2.78929C-118.486 2.20143 -118.414 1.42357 -118.451 0.454999L-118.552 -2.22143C-118.578 -2.895 -118.7 -3.4 -118.92 -3.73643C-119.134 -4.07286 -119.566 -4.22857 -120.215 -4.20429C-120.859 -4.18 -121.661 -3.85143 -122.622 -3.21929L-122.497 0.0842848C-122.454 1.215 -122.249 2.15714 -121.881 2.91143L-121.876 3.03643L-124.324 3.12928L-124.329 3.00428C-124.149 2.41643 -124.078 1.63857 -124.114 0.669999L-124.411 -7.14714C-124.446 -8.07643 -124.741 -8.78857 -125.296 -9.28429L-125.304 -9.49071L-122.983 -10L-122.873 -9.82714C-122.894 -9.49143 -122.869 -8.37214 -122.797 -6.47Z" fill="#6B7280"/>
<path d="M-112.564 0.593579L-112.369 -2.79499C-112.31 -3.83142 -112.561 -4.56999 -113.121 -5.01142L-113.11 -5.21785L-110.617 -5.49571L-110.524 -5.31356C-110.578 -4.97642 -110.623 -4.49356 -110.659 -3.86499L-110.896 0.253578C-110.964 1.41786 -110.871 2.33929 -110.619 3.01929L-110.626 3.14429L-112.984 3.00929L-112.977 2.88358C-112.759 2.34929 -112.621 1.58572 -112.564 0.593579ZM-110.526 -9.26071C-110.373 -9.10928 -110.311 -8.76571 -110.342 -8.22999C-110.349 -8.10213 -110.361 -7.98713 -110.376 -7.88428L-110.524 -7.76713C-110.998 -7.66642 -111.556 -7.60499 -112.198 -7.58285L-112.356 -7.66571C-112.511 -7.97499 -112.574 -8.38071 -112.544 -8.88142C-112.541 -8.94071 -112.538 -8.99928 -112.534 -9.05856L-112.387 -9.17571C-111.816 -9.32499 -111.276 -9.38499 -110.765 -9.35571C-110.706 -9.35213 -110.626 -9.32071 -110.526 -9.26071Z" fill="#6B7280"/>
<path d="M-105.416 -4.79285L-105.446 -4.58856C-105.496 -4.25285 -105.394 -3.34714 -105.142 -1.87214L-104.439 2.32144L-102.334 -1.84142C-101.977 -2.56428 -101.751 -3.24428 -101.656 -3.88142L-101.626 -4.08571L-99.8086 -3.81499L-99.8393 -3.61071C-100.194 -3.36499 -100.579 -2.85071 -100.994 -2.06713L-103.787 3.30644L-104.167 4.15287L-105.783 3.97929L-105.928 2.95001L-107.145 -3.05071C-107.344 -3.91642 -107.573 -4.46999 -107.83 -4.71213L-107.799 -4.91642L-105.416 -4.79285Z" fill="#6B7280"/>
<path d="M-94.2043 4.24144L-93.8071 2.64501C-94.2271 2.35787 -94.7407 2.13858 -95.3471 1.98787C-95.9486 1.83787 -96.41 1.82715 -96.7307 1.95501C-96.9664 2.17001 -97.1386 2.49501 -97.2464 2.92929C-97.3557 3.36858 -97.3221 3.74215 -97.145 4.05001C-96.9678 4.35787 -96.7028 4.55572 -96.35 4.64358C-95.9921 4.73287 -95.6036 4.73072 -95.1843 4.63644C-94.7657 4.54287 -94.4386 4.41144 -94.2043 4.24144ZM-94.1421 5.15429C-95.0186 5.74215 -95.8914 5.92787 -96.76 5.71215C-97.6243 5.49715 -98.2557 5.14215 -98.655 4.64715C-99.0543 4.15215 -99.15 3.48715 -98.9421 2.65215C-98.7357 1.82144 -98.2957 1.29715 -97.6228 1.07929C-96.95 0.861437 -96.0814 0.885008 -95.0164 1.15001L-93.5393 1.57072L-93.2993 0.60358C-93.1507 0.0071519 -93.175 -0.51642 -93.3721 -0.965706C-93.5757 -1.41142 -93.9778 -1.70928 -94.5793 -1.85928C-95.0221 -1.95428 -95.8343 -1.70499 -97.0164 -1.11213C-97.2414 -1.61428 -97.3371 -2.21642 -97.305 -2.91785C-96.0928 -3.00142 -95.0186 -2.92713 -94.0828 -2.69428C-93.1421 -2.45999 -92.4486 -2.02928 -92.0014 -1.40071C-91.5593 -0.773563 -91.45 -0.0114197 -91.6736 0.886437L-92.3829 3.73715C-92.4957 4.25144 -92.53 4.74501 -92.485 5.21715C-92.44 5.68929 -92.315 6.04287 -92.11 6.27644L-92.1164 6.45715L-94.0443 6.44144C-94.1021 6.04144 -94.135 5.61287 -94.1421 5.15429Z" fill="#6B7280"/>
<path d="M-86.4929 7.01144C-84.2614 4.18787 -83.0357 2.47644 -82.8157 1.87572C-82.7464 1.68644 -82.7286 1.51715 -82.7628 1.36858L-82.6914 1.17429L-80.9321 1.82001L-81.0036 2.01429C-81.2221 2.09644 -83.0364 4.27644 -86.4457 8.55358C-88.0571 10.5457 -88.9993 11.7407 -89.2714 12.1386L-89.32 12.2707L-91.4121 11.675L-91.3828 11.5522C-90.2343 10.8943 -89.0621 9.87001 -87.8657 8.48072C-87.8671 8.27072 -87.9878 5.66572 -88.2286 0.667152C-88.2571 0.0750096 -88.3607 -0.372133 -88.5386 -0.672848L-88.4643 -0.873562L-86.1957 -0.245705L-86.2693 -0.0442762C-86.3728 0.237152 -86.4428 0.835009 -86.4793 1.74929C-86.5164 2.66358 -86.5207 4.41715 -86.4929 7.01144Z" fill="#6B7280"/>
<path d="M-70.9228 2.35715L-70.0564 2.89429C-68.1678 3.93215 -67.2086 4.46001 -67.1786 4.47644C-65.3836 5.50072 -64.2793 6.67144 -63.8643 7.99001C-63.4457 9.31072 -63.7186 10.8172 -64.6843 12.51C-65.2914 13.5743 -66 14.4243 -66.8107 15.06C-68.6464 16.5107 -70.78 16.5422 -73.2114 15.155L-76.0886 13.4964L-76.9864 12.985L-76.9243 12.8757C-76.4036 12.34 -75.7357 11.3586 -74.9214 9.93144L-72.5 5.68858C-71.6857 4.26144 -71.1807 3.18715 -70.985 2.46644L-70.9228 2.35715ZM-72.6807 14.09C-71.4543 14.79 -70.4878 15.1314 -69.7821 15.1157C-68.6771 14.7379 -67.6357 13.6922 -66.6578 11.9786C-65.6778 10.2607 -65.31 8.90144 -65.555 7.90072C-65.7957 6.90287 -66.64 5.99001 -68.0885 5.16358C-68.1185 5.14644 -68.6243 4.86644 -69.6057 4.32358C-69.8464 4.69572 -70.5678 5.93572 -71.77 8.04215L-72.2893 8.95215C-73.6178 11.2807 -74.3485 12.6114 -74.4821 12.9436C-73.9093 13.3493 -73.3093 13.7322 -72.6807 14.09Z" fill="#6B7280"/>
<path d="M-63.8657 18.2479L-61.8571 15.5114C-61.2428 14.6743 -61.0507 13.9186 -61.2814 13.2429L-61.1593 13.0764L-58.9171 14.2L-58.9386 14.4036C-59.1671 14.6572 -59.4678 15.0372 -59.8407 15.545L-62.2814 18.8707C-62.9714 19.8107 -63.3957 20.6343 -63.555 21.3414L-63.6293 21.4429L-65.5329 20.045L-65.4586 19.9443C-64.985 19.615 -64.4536 19.0493 -63.8657 18.2479ZM-56.7914 11.0914C-56.745 11.3029 -56.8807 11.6243 -57.1978 12.0564C-57.2736 12.1593 -57.3457 12.25 -57.415 12.3272L-57.6021 12.3457C-58.0543 12.1722 -58.5564 11.92 -59.1064 11.5893L-59.1936 11.4336C-59.155 11.09 -58.9871 10.7157 -58.69 10.3114C-58.655 10.2636 -58.62 10.2164 -58.585 10.1686L-58.3978 10.15C-57.8378 10.335 -57.3521 10.5793 -56.9393 10.8822C-56.8914 10.9172 -56.8421 10.9872 -56.7914 11.0914Z" fill="#6B7280"/>
<path d="M-52.2607 24.2243L-54.4257 26.5343C-55.065 27.2164 -55.5321 27.8407 -55.8271 28.4072L-55.9129 28.4986L-57.4957 27.015L-57.41 26.9236C-56.86 26.5957 -56.2657 26.0914 -55.6264 25.4086L-53.7136 23.3679C-53.2593 22.8836 -52.9907 22.4671 -52.9086 22.12C-52.8221 21.7764 -52.9714 21.4243 -53.355 21.0643C-53.7393 20.7043 -54.4579 20.4386 -55.5107 20.2679L-57.7721 22.68C-58.5457 23.5057 -59.0714 24.3143 -59.3486 25.1064L-59.4343 25.1979L-61.2214 23.5229L-61.1357 23.4307C-60.595 23.1414 -59.9936 22.6436 -59.3307 21.9372L-57.2971 19.7672C-56.9543 19.4007 -56.6914 18.9729 -56.5086 18.4829C-56.3264 17.9864 -56.2764 17.5879 -56.3593 17.2879L-56.2343 17.1222L-54.1864 18.2929L-54.2321 18.4929C-54.46 18.8729 -54.7093 19.2393 -54.9793 19.5929C-54.4214 19.6164 -54.0278 19.6386 -53.7971 19.6586C-53.5671 19.6722 -53.2743 19.7336 -52.9193 19.8443C-52.5643 19.9479 -52.2793 20.1 -52.0643 20.3022C-51.1886 21.1229 -50.98 22.0336 -51.4379 23.0336C-49.8486 23.0936 -48.8064 23.3557 -48.3114 23.82C-47.7157 24.3786 -47.4379 25.01 -47.4771 25.7143C-47.51 26.4186 -47.8693 27.1364 -48.5557 27.8686L-50.2764 29.705C-51.0336 30.5129 -51.555 31.325 -51.8421 32.1414L-51.9286 32.2329L-53.7264 30.5472L-53.6407 30.4557C-53.1 30.1664 -52.4986 29.6686 -51.8357 28.9614L-50.0036 27.0072C-49.0714 26.0129 -48.9164 25.225 -49.5379 24.6429C-50.0586 24.155 -50.8271 23.8493 -51.8436 23.725C-52.0171 23.9464 -52.1564 24.1129 -52.2607 24.2243Z" fill="#6B7280"/>
<path d="M-48.1786 37.3057C-48.9371 36.3436 -49.2343 35.3436 -49.07 34.305C-48.9014 33.2636 -48.3243 32.3543 -47.3393 31.5779C-46.3543 30.8007 -45.2471 30.4572 -44.0171 30.5464C-42.7907 30.6322 -41.7893 31.1672 -41.0121 32.1522C-40.235 33.1372 -39.9357 34.1322 -40.1143 35.1372C-40.2857 36.1436 -40.87 37.0393 -41.8664 37.8257C-42.8671 38.615 -43.9807 38.9664 -45.2071 38.8814C-46.4329 38.7893 -47.4236 38.2643 -48.1786 37.3057ZM-43.3557 36.6407C-42.4514 35.9279 -41.865 35.2336 -41.5964 34.5579C-41.3243 33.8857 -41.4728 33.1886 -42.0428 32.4664C-42.4114 31.9993 -42.8014 31.7114 -43.2121 31.6029C-43.5514 31.6014 -43.9793 31.7186 -44.4936 31.9557C-45.0043 32.1893 -45.4571 32.4622 -45.8514 32.7729C-47.7671 34.2843 -48.1907 35.7172 -47.1214 37.0736C-46.7893 37.495 -46.4228 37.76 -46.0228 37.8707C-45.6736 37.8772 -45.2436 37.7543 -44.7343 37.5029C-44.2207 37.2486 -43.7614 36.9607 -43.3557 36.6407Z" fill="#6B7280"/>
<path d="M-33.8129 42.8622C-33.3757 43.5807 -33.2693 44.2764 -33.4943 44.9486C-33.7121 45.6222 -34.25 46.22 -35.1078 46.7414L-37.2578 48.0486C-38.2036 48.6236 -38.9243 49.2664 -39.42 49.9764L-39.5271 50.0414L-40.8078 47.9357L-40.7 47.8707C-40.1014 47.7372 -39.3886 47.4186 -38.5607 46.915L-36.2721 45.5236C-35.6964 45.1736 -35.3136 44.8229 -35.1236 44.4707C-34.9364 44.115 -35.0043 43.6729 -35.3264 43.1436C-35.6457 42.6179 -36.3114 42.0957 -37.3243 41.5772L-40.1486 43.2943C-41.1157 43.8822 -41.8386 44.5207 -42.3186 45.2093L-42.4257 45.275L-43.6986 43.1814L-43.5914 43.1164C-42.9929 42.9829 -42.28 42.6643 -41.4514 42.1607L-38.9107 40.6157C-38.4821 40.355 -38.1143 40.0136 -37.8064 39.59C-37.4979 39.1607 -37.3428 38.79 -37.3421 38.4786L-37.1771 38.3522L-35.5186 40.03L-35.6157 40.21C-35.9371 40.515 -36.2757 40.8014 -36.6307 41.0693C-36.1157 41.2629 -35.7264 41.4207 -35.4628 41.5422C-35.2014 41.6593 -34.9064 41.8372 -34.5771 42.0743C-34.2443 42.3093 -33.9886 42.5722 -33.8129 42.8622Z" fill="#6B7280"/>
<path d="M-37.1536 55.6979C-37.65 54.5886 -37.6443 53.5943 -37.1371 52.7157C-36.63 51.8372 -35.8064 51.1422 -34.6657 50.6322C-33.525 50.1222 -32.4057 50.0393 -31.3085 50.3836C-30.205 50.7307 -29.415 51.4364 -28.9393 52.5007C-28.6721 53.0979 -28.5114 53.735 -28.4564 54.4114L-26.6307 53.595C-25.7821 53.2157 -25.2314 52.675 -24.9785 51.975L-24.79 51.89L-23.4271 53.9079L-23.5464 54.0743C-23.8657 54.1793 -24.3128 54.3607 -24.8878 54.6179L-32.7964 58.155C-33.2771 58.37 -33.7 58.6479 -34.065 58.9893C-34.43 59.33 -34.6386 59.6529 -34.6914 59.9564L-34.8378 60.0621L-36.0329 58.5114C-35.8114 58.2829 -35.4343 57.9529 -34.9 57.5193C-36.065 57.0593 -36.8164 56.4522 -37.1536 55.6979ZM-35.8336 54.2022C-36.0136 54.6543 -35.9857 55.1457 -35.7486 55.6757C-35.5093 56.21 -35.0057 56.65 -34.2364 56.9964L-29.73 54.9807C-29.5728 54.2479 -29.68 53.4657 -30.0514 52.635C-30.2664 52.1543 -30.5278 51.8293 -30.835 51.6593C-31.6407 51.545 -32.5957 51.735 -33.7007 52.23C-34.81 52.7264 -35.5207 53.3836 -35.8336 54.2022Z" fill="#6B7280"/>
<path d="M-26.5257 61.8064C-26.7921 61.67 -27.0985 61.6572 -27.445 61.7686C-27.7964 61.8814 -28.0321 62.0793 -28.1535 62.3607C-28.2778 62.6486 -28.33 62.9757 -28.3107 63.3414C-28.29 63.7122 -28.2829 64.11 -28.2907 64.5372C-28.3014 64.9693 -28.3264 65.3807 -28.3664 65.7707C-28.4078 66.1564 -28.5586 66.515 -28.8186 66.8464C-29.08 67.1736 -29.45 67.4143 -29.9278 67.5679C-30.7707 67.8393 -31.51 67.7336 -32.1464 67.2507C-32.7778 66.7664 -33.2571 66.0164 -33.5835 65C-33.9093 63.9886 -33.9393 63.0036 -33.6743 62.0443C-33.0971 61.895 -32.5378 61.8986 -31.9964 62.055C-32.5821 63.3493 -32.7436 64.4064 -32.48 65.2257C-32.3657 65.5814 -32.1914 65.8743 -31.9571 66.1043C-31.6414 66.2972 -31.2871 66.3307 -30.8936 66.2043C-30.4957 66.0764 -30.2378 65.825 -30.1207 65.4514C-30.0036 65.0779 -29.9536 64.6536 -29.9721 64.1786C-29.9893 63.7086 -29.99 63.2307 -29.9757 62.7457C-29.955 62.2636 -29.8278 61.8172 -29.5928 61.4057C-29.3586 60.9943 -28.9743 60.7029 -28.44 60.5307C-27.6628 60.2807 -26.9721 60.3786 -26.3686 60.825C-25.765 61.2714 -25.32 61.94 -25.0335 62.83C-24.7471 63.72 -24.6564 64.6522 -24.7614 65.6264C-25.28 65.685 -25.8321 65.6479 -26.4171 65.5157C-25.8786 64.4743 -25.7478 63.525 -26.0236 62.6679C-26.1414 62.3029 -26.3086 62.015 -26.5257 61.8064Z" fill="#6B7280"/>
<path d="M-216 92.2143C-216 89.4572 -213.764 87.2214 -211.007 87.2214C-208.25 87.2214 -206.014 89.4572 -206.014 92.2143C-206.014 94.9714 -208.25 97.2071 -211.007 97.2071C-213.764 97.2071 -216 94.9714 -216 92.2143Z" fill="#6B7280"/>
<path d="M-30.0286 92.2143C-30.0286 89.4572 -27.7929 87.2214 -25.0357 87.2214C-22.2786 87.2214 -20.0428 89.4572 -20.0428 92.2143C-20.0428 94.9714 -22.2786 97.2071 -25.0357 97.2071C-27.7929 97.2071 -30.0286 94.9714 -30.0286 92.2143Z" fill="#6B7280"/>
<path d="M-210.154 123.828C-210.68 122.23 -210.541 120.773 -209.737 119.456C-208.933 118.139 -207.674 117.199 -205.959 116.633C-204.249 116.069 -202.621 116.129 -201.075 116.811C-199.529 117.493 -198.477 118.681 -197.918 120.378C-197.556 121.476 -197.516 122.506 -197.8 123.47C-198.352 125.346 -199.745 126.652 -201.979 127.389C-203.81 127.992 -205.499 127.951 -207.047 127.264C-208.59 126.576 -209.625 125.431 -210.154 123.828ZM-203.054 125.66C-201.633 125.192 -200.562 124.544 -199.841 123.715C-199.024 122.799 -198.844 121.646 -199.301 120.259C-199.621 119.286 -200.046 118.58 -200.576 118.138C-201.079 117.946 -201.725 117.872 -202.514 117.914C-203.309 117.954 -204.158 118.122 -205.059 118.419C-205.961 118.716 -206.736 119.101 -207.383 119.574C-208.035 120.047 -208.509 120.667 -208.806 121.434C-209.107 122.201 -209.112 123.026 -208.821 123.909C-208.532 124.788 -208.11 125.454 -207.556 125.909C-206.479 126.377 -204.979 126.294 -203.054 125.66Z" fill="#97978D"/>
<path d="M-197.981 136.954L-200.782 138.428C-201.609 138.863 -202.255 139.3 -202.72 139.739L-202.831 139.796L-203.841 137.876L-203.729 137.818C-203.103 137.689 -202.376 137.406 -201.549 136.971L-199.073 135.669C-198.485 135.36 -198.095 135.055 -197.904 134.754C-197.709 134.458 -197.735 134.076 -197.979 133.611C-198.224 133.145 -198.816 132.659 -199.756 132.151L-202.682 133.69C-203.684 134.216 -204.445 134.809 -204.966 135.466L-205.077 135.525L-206.217 133.356L-206.106 133.298C-205.501 133.202 -204.769 132.929 -203.911 132.477L-201.279 131.094C-200.835 130.86 -200.446 130.541 -200.114 130.139C-199.779 129.729 -199.601 129.369 -199.581 129.058L-199.409 128.942L-197.857 130.719L-197.966 130.894C-198.306 131.178 -198.661 131.443 -199.032 131.688C-198.513 131.893 -198.148 132.043 -197.937 132.137C-197.724 132.225 -197.468 132.379 -197.169 132.6C-196.867 132.814 -196.648 133.051 -196.51 133.313C-195.951 134.375 -196.052 135.304 -196.813 136.099C-195.331 136.676 -194.432 137.264 -194.116 137.866C-193.736 138.589 -193.681 139.276 -193.949 139.929C-194.21 140.583 -194.785 141.144 -195.674 141.611L-197.901 142.782C-198.881 143.297 -199.639 143.894 -200.178 144.571L-200.289 144.63L-201.436 142.449L-201.325 142.39C-200.719 142.294 -199.988 142.021 -199.131 141.569L-196.759 140.323C-195.553 139.689 -195.148 138.995 -195.544 138.241C-195.876 137.61 -196.502 137.069 -197.423 136.619C-197.659 136.771 -197.846 136.883 -197.981 136.954Z" fill="#97978D"/>
<path d="M-193.511 153.624L-193.607 153.704L-194.74 152.352L-194.644 152.271C-193.944 151.911 -192.852 151.108 -191.366 149.864L-188.362 147.348C-186.986 146.195 -186.006 145.276 -185.426 144.59L-185.329 144.509L-183.851 146.034L-187.216 156.841L-182.854 153.189C-182.383 152.794 -181.889 152.334 -181.37 151.811C-180.856 151.291 -180.523 150.896 -180.37 150.626L-180.274 150.546L-179.094 151.954L-179.19 152.035C-179.889 152.396 -180.981 153.199 -182.467 154.443L-185.834 157.262C-186.369 157.711 -186.929 158.211 -187.511 158.764C-188.088 159.318 -188.419 159.662 -188.504 159.798L-189.696 158.649L-186.1 147.003L-190.994 151.101C-192.181 152.096 -193.021 152.937 -193.511 153.624Z" fill="#97978D"/>
<path d="M-180.663 164.582L-179.555 163.365C-179.789 162.913 -180.136 162.476 -180.599 162.056C-181.058 161.639 -181.459 161.41 -181.801 161.371C-182.111 161.448 -182.417 161.652 -182.718 161.984C-183.023 162.319 -183.17 162.663 -183.161 163.018C-183.151 163.373 -183.011 163.673 -182.742 163.917C-182.469 164.166 -182.126 164.348 -181.714 164.464C-181.301 164.581 -180.951 164.62 -180.663 164.582ZM-181.041 165.415C-182.092 165.516 -182.949 165.266 -183.611 164.664C-184.269 164.064 -184.656 163.452 -184.774 162.827C-184.89 162.202 -184.659 161.571 -184.079 160.934C-183.502 160.301 -182.866 160.049 -182.171 160.176C-181.475 160.304 -180.721 160.737 -179.911 161.475L-178.81 162.546L-178.139 161.81C-177.725 161.355 -177.499 160.883 -177.459 160.394C-177.426 159.904 -177.639 159.451 -178.098 159.034C-178.443 158.74 -179.276 158.574 -180.597 158.535C-180.556 157.986 -180.356 157.411 -179.994 156.809C-178.888 157.31 -177.978 157.886 -177.264 158.535C-176.548 159.187 -176.141 159.896 -176.046 160.661C-175.955 161.424 -176.221 162.146 -176.843 162.83L-178.82 165.002C-179.164 165.401 -179.428 165.819 -179.613 166.256C-179.798 166.694 -179.855 167.064 -179.785 167.367L-179.877 167.523L-181.566 166.594C-181.428 166.215 -181.253 165.822 -181.041 165.415Z" fill="#97978D"/>
<path d="M-167.915 169.304L-169.698 171.92C-170.224 172.692 -170.589 173.381 -170.794 173.986L-170.864 174.09L-172.657 172.868L-172.586 172.764C-172.094 172.356 -171.584 171.766 -171.058 170.993L-169.483 168.682C-169.109 168.134 -168.908 167.681 -168.879 167.325C-168.847 166.972 -169.049 166.647 -169.484 166.351C-169.919 166.054 -170.669 165.903 -171.736 165.896L-173.599 168.627C-174.236 169.562 -174.63 170.442 -174.782 171.268L-174.853 171.371L-176.877 169.992L-176.806 169.888C-176.317 169.519 -175.799 168.934 -175.254 168.134L-173.579 165.676C-173.296 165.261 -173.102 164.798 -172.997 164.286C-172.894 163.767 -172.906 163.366 -173.034 163.082L-172.936 162.899L-170.732 163.74L-170.746 163.945C-170.913 164.356 -171.103 164.756 -171.316 165.146C-170.761 165.084 -170.369 165.045 -170.137 165.03C-169.908 165.008 -169.609 165.024 -169.241 165.078C-168.875 165.125 -168.569 165.232 -168.326 165.398C-167.334 166.074 -166.987 166.941 -167.286 168C-165.706 167.814 -164.636 167.912 -164.075 168.295C-163.4 168.755 -163.028 169.336 -162.959 170.038C-162.884 170.739 -163.128 171.504 -163.693 172.334L-165.11 174.413C-165.734 175.328 -166.124 176.211 -166.281 177.061L-166.352 177.165L-168.389 175.777L-168.318 175.674C-167.829 175.305 -167.311 174.72 -166.765 173.919L-165.256 171.705C-164.489 170.579 -164.457 169.776 -165.16 169.297C-165.749 168.896 -166.556 168.711 -167.58 168.746C-167.718 168.992 -167.829 169.178 -167.915 169.304Z" fill="#97978D"/>
<path d="M-157.878 179.33L-157.159 177.851C-157.51 177.483 -157.967 177.162 -158.529 176.889C-159.086 176.617 -159.535 176.511 -159.875 176.57C-160.151 176.731 -160.386 177.014 -160.582 177.416C-160.78 177.823 -160.824 178.195 -160.716 178.533C-160.606 178.871 -160.388 179.119 -160.06 179.278C-159.728 179.439 -159.348 179.518 -158.919 179.513C-158.49 179.508 -158.144 179.447 -157.878 179.33ZM-158.007 180.236C-158.986 180.629 -159.879 180.63 -160.684 180.239C-161.484 179.849 -162.029 179.371 -162.316 178.804C-162.604 178.238 -162.56 177.567 -162.184 176.793C-161.809 176.023 -161.27 175.601 -160.566 175.528C-159.863 175.454 -159.018 175.657 -158.032 176.137L-156.674 176.855L-156.239 175.959C-155.969 175.406 -155.885 174.889 -155.984 174.409C-156.091 173.93 -156.423 173.555 -156.981 173.284C-157.394 173.099 -158.241 173.174 -159.519 173.509C-159.635 172.971 -159.604 172.363 -159.427 171.684C-158.224 171.853 -157.189 172.149 -156.321 172.571C-155.45 172.995 -154.861 173.56 -154.554 174.267C-154.251 174.972 -154.302 175.741 -154.706 176.573L-155.991 179.214C-156.209 179.694 -156.344 180.17 -156.399 180.641C-156.453 181.112 -156.404 181.484 -156.251 181.755L-156.295 181.93L-158.178 181.515C-158.151 181.112 -158.094 180.686 -158.007 180.236Z" fill="#97978D"/>
<path d="M-148.091 175.021L-148.888 177.284C-148.357 177.111 -147.951 176.987 -147.67 176.915C-147.389 176.842 -147.044 176.794 -146.634 176.771C-146.222 176.744 -145.856 176.787 -145.536 176.899C-144.724 177.185 -144.188 177.661 -143.927 178.327C-143.664 178.988 -143.7 179.792 -144.033 180.739L-144.869 183.112C-145.237 184.156 -145.388 185.11 -145.321 185.973L-145.363 186.091L-147.694 185.27L-147.653 185.151C-147.27 184.671 -146.917 183.974 -146.595 183.059L-145.706 180.533C-145.482 179.897 -145.41 179.383 -145.49 178.989C-145.566 178.597 -145.91 178.294 -146.523 178.078C-147.131 177.864 -147.998 177.874 -149.124 178.109L-150.221 181.227C-150.597 182.294 -150.753 183.246 -150.688 184.083L-150.729 184.201L-153.04 183.387L-152.999 183.269C-152.616 182.789 -152.263 182.091 -151.941 181.177L-149.343 173.799C-149.034 172.921 -149.046 172.15 -149.381 171.485L-149.312 171.29L-146.966 171.671L-146.927 171.872C-147.071 172.176 -147.459 173.226 -148.091 175.021Z" fill="#97978D"/>
<path d="M-132.721 177.578C-133.015 177.849 -133.197 178.206 -133.269 178.647C-133.341 179.089 -133.291 179.471 -133.119 179.794C-132.948 180.121 -132.699 180.408 -132.37 180.656C-132.046 180.903 -131.686 181.151 -131.287 181.4C-130.889 181.644 -130.493 181.908 -130.1 182.191C-129.712 182.474 -129.361 182.785 -129.049 183.125C-128.74 183.464 -128.514 183.885 -128.371 184.387C-128.229 184.889 -128.207 185.446 -128.307 186.057C-128.497 187.223 -129.014 188.043 -129.859 188.519C-130.704 188.994 -131.777 189.126 -133.079 188.914C-134.38 188.702 -135.488 188.144 -136.401 187.237C-136.244 186.485 -135.93 185.859 -135.46 185.356C-135.088 185.98 -134.604 186.525 -134.006 186.991C-133.404 187.454 -132.804 187.733 -132.206 187.83C-131.609 187.927 -131.076 187.879 -130.606 187.687C-130.263 187.389 -130.046 186.959 -129.954 186.395C-129.862 185.827 -129.932 185.342 -130.166 184.939C-130.404 184.531 -130.722 184.194 -131.122 183.924C-131.521 183.65 -131.956 183.35 -132.426 183.024C-132.901 182.693 -133.333 182.364 -133.724 182.035C-134.11 181.713 -134.413 181.292 -134.632 180.774C-134.847 180.255 -134.902 179.678 -134.799 179.041C-134.626 177.983 -134.139 177.255 -133.336 176.857C-132.533 176.454 -131.588 176.341 -130.5 176.519C-129.412 176.696 -128.341 177.141 -127.286 177.857C-127.523 178.516 -127.836 179.126 -128.226 179.685C-128.621 179.137 -129.101 178.66 -129.669 178.254C-130.231 177.854 -130.789 177.609 -131.343 177.518C-131.896 177.428 -132.356 177.448 -132.721 177.578Z" fill="#97978D"/>
<path d="M-122.393 180.236L-122.484 182.632C-122.029 182.31 -121.677 182.072 -121.431 181.919C-121.184 181.766 -120.868 181.617 -120.483 181.475C-120.098 181.327 -119.736 181.259 -119.397 181.272C-118.537 181.305 -117.884 181.6 -117.437 182.159C-116.991 182.712 -116.786 183.491 -116.824 184.494L-116.919 187.009C-116.961 188.115 -116.823 189.07 -116.504 189.874L-116.508 190L-118.979 189.906L-118.974 189.781C-118.75 189.209 -118.62 188.438 -118.584 187.469L-118.482 184.793C-118.456 184.119 -118.541 183.606 -118.734 183.254C-118.922 182.903 -119.341 182.714 -119.99 182.69C-120.634 182.666 -121.459 182.932 -122.465 183.489L-122.59 186.794C-122.633 187.924 -122.499 188.879 -122.189 189.659L-122.194 189.784L-124.642 189.691L-124.637 189.566C-124.414 188.994 -124.284 188.224 -124.247 187.255L-123.951 179.438C-123.916 178.509 -124.156 177.776 -124.672 177.239L-124.664 177.033L-122.311 176.701L-122.214 176.882C-122.261 177.215 -122.321 178.333 -122.393 180.236Z" fill="#97978D"/>
<path d="M-112.361 187.357L-112.556 183.968C-112.616 182.931 -112.95 182.226 -113.558 181.852L-113.57 181.646L-111.126 181.084L-111.012 181.255C-111.027 181.596 -111.016 182.081 -110.981 182.709L-110.744 186.828C-110.676 187.992 -110.479 188.897 -110.151 189.544L-110.144 189.669L-112.502 189.804L-112.509 189.679C-112.354 189.124 -112.305 188.349 -112.361 187.357ZM-111.467 177.334C-111.297 177.467 -111.196 177.801 -111.166 178.337C-111.159 178.465 -111.156 178.581 -111.16 178.684L-111.293 178.817C-111.752 178.971 -112.299 179.096 -112.935 179.193L-113.101 179.128C-113.29 178.838 -113.399 178.443 -113.428 177.942C-113.431 177.883 -113.434 177.824 -113.438 177.765L-113.305 177.632C-112.756 177.419 -112.226 177.296 -111.715 177.267C-111.656 177.264 -111.574 177.286 -111.467 177.334Z" fill="#97978D"/>
<path d="M-106.695 180.639L-106.664 180.843C-106.614 181.179 -106.254 182.015 -105.581 183.352L-103.686 187.159L-102.886 182.563C-102.756 181.767 -102.739 181.051 -102.834 180.414L-102.864 180.209L-101.046 179.938L-101.016 180.142C-101.284 180.481 -101.503 181.085 -101.671 181.956L-102.776 187.911L-102.892 188.831L-104.488 189.136L-104.927 188.194L-107.841 182.809C-108.284 182.039 -108.664 181.576 -108.981 181.419L-109.011 181.215L-106.695 180.639Z" fill="#97978D"/>
<path d="M-93.0707 184.742L-93.4679 183.145C-93.9736 183.089 -94.53 183.136 -95.1364 183.286C-95.7379 183.436 -96.1507 183.643 -96.3736 183.906C-96.4814 184.207 -96.4814 184.574 -96.3736 185.009C-96.2643 185.448 -96.0593 185.762 -95.7586 185.951C-95.4579 186.139 -95.1314 186.19 -94.7779 186.102C-94.42 186.013 -94.0779 185.829 -93.7514 185.55C-93.4257 185.271 -93.1986 185.001 -93.0707 184.742ZM-92.5886 185.519C-93.0871 186.449 -93.7707 187.023 -94.6393 187.239C-95.5036 187.454 -96.2279 187.436 -96.8122 187.186C-97.3964 186.936 -97.7929 186.394 -98.0007 185.558C-98.2071 184.727 -98.065 184.058 -97.5729 183.551C-97.0807 183.043 -96.3022 182.656 -95.2372 182.391L-93.7357 182.071L-93.9757 181.104C-94.1243 180.508 -94.3907 180.057 -94.7764 179.752C-95.165 179.454 -95.66 179.379 -96.2614 179.529C-96.6972 179.652 -97.2979 180.253 -98.0643 181.331C-98.4986 180.993 -98.865 180.506 -99.165 179.871C-98.1336 179.229 -97.15 178.791 -96.2143 178.559C-95.2736 178.324 -94.4586 178.38 -93.7693 178.726C-93.085 179.072 -92.6307 179.695 -92.4079 180.592L-91.6986 183.442C-91.5571 183.949 -91.3557 184.401 -91.095 184.798C-90.8343 185.194 -90.5579 185.448 -90.2672 185.558L-90.1886 185.721L-91.8986 186.61C-92.1371 186.284 -92.3664 185.921 -92.5886 185.519Z" fill="#97978D"/>
<path d="M-84.7079 182.281C-84.8329 178.685 -85.0057 176.586 -85.2264 175.986C-85.2957 175.796 -85.3921 175.656 -85.5143 175.565L-85.5857 175.371L-83.8257 174.725L-83.755 174.919C-83.8686 175.124 -83.8421 177.959 -83.6743 183.426C-83.6143 185.988 -83.5593 187.509 -83.5086 187.989L-83.4607 188.12L-85.4414 189.02L-85.4986 188.907C-85.0486 187.662 -84.8171 186.123 -84.8036 184.289C-84.9407 184.13 -86.7179 182.222 -90.1357 178.566C-90.5407 178.134 -90.9086 177.86 -91.2386 177.745L-91.3129 177.544L-89.1757 176.555L-89.1021 176.756C-88.9986 177.038 -88.665 177.539 -88.1021 178.26C-87.5386 178.981 -86.4071 180.321 -84.7079 182.281Z" fill="#97978D"/>
<path d="M-78.9021 168.086L-77.9993 167.613C-76.145 166.515 -75.2021 165.958 -75.1729 165.941C-73.3779 164.916 -71.8079 164.561 -70.4614 164.876C-69.1114 165.187 -67.9536 166.189 -66.9879 167.881C-66.3807 168.946 -66.0093 169.989 -65.8743 171.01C-65.56 173.329 -66.6179 175.181 -69.05 176.569L-71.9414 178.201L-72.8386 178.713L-72.9007 178.604C-73.0964 177.884 -73.6021 176.809 -74.4164 175.382L-76.8371 171.139C-77.6514 169.711 -78.3193 168.73 -78.84 168.195L-78.9021 168.086ZM-69.6964 175.569C-68.47 174.869 -67.6843 174.211 -67.3386 173.596C-67.1014 172.452 -67.4721 171.024 -68.45 169.31C-69.43 167.592 -70.4129 166.584 -71.3993 166.286C-72.3807 165.985 -73.5957 166.248 -75.0443 167.074C-75.0743 167.091 -75.5729 167.384 -76.54 167.953C-76.3421 168.349 -75.6421 169.601 -74.44 171.708L-73.9207 172.618C-72.5921 174.946 -71.8186 176.253 -71.6 176.536C-70.9593 176.25 -70.3243 175.928 -69.6964 175.569Z" fill="#97978D"/>
<path d="M-61.7786 169.025L-63.7872 166.289C-64.4014 165.451 -65.065 165.042 -65.7786 165.059L-65.9007 164.892L-64.1564 163.091L-63.9686 163.172C-63.7957 163.466 -63.5229 163.867 -63.15 164.374L-60.7093 167.7C-60.0193 168.64 -59.3607 169.292 -58.7336 169.656L-58.6593 169.756L-60.5636 171.154L-60.6378 171.053C-60.81 170.502 -61.1907 169.826 -61.7786 169.025ZM-66.485 160.131C-66.27 160.15 -66.0036 160.375 -65.6857 160.807C-65.61 160.91 -65.5457 161.006 -65.4929 161.096L-65.5314 161.28C-65.8329 161.66 -66.2236 162.063 -66.7043 162.489L-66.8786 162.525C-67.195 162.385 -67.5014 162.113 -67.7986 161.708C-67.8336 161.66 -67.8686 161.613 -67.9036 161.565L-67.8643 161.381C-67.52 160.903 -67.1414 160.512 -66.7293 160.209C-66.6814 160.174 -66.6 160.148 -66.485 160.131Z" fill="#97978D"/>
<path d="M-54.1986 158.137L-52.0336 160.447C-51.3943 161.129 -50.8014 161.636 -50.255 161.966L-50.1693 162.058L-51.7521 163.542L-51.8386 163.45C-52.13 162.88 -52.595 162.254 -53.2343 161.573L-55.1464 159.532C-55.6007 159.048 -55.9986 158.753 -56.34 158.647C-56.6779 158.539 -57.0386 158.664 -57.4221 159.025C-57.8064 159.385 -58.1178 160.085 -58.3571 161.125L-56.0964 163.537C-55.3228 164.363 -54.5493 164.939 -53.7764 165.267L-53.6907 165.359L-55.4786 167.034L-55.5643 166.942C-55.8178 166.384 -56.2757 165.751 -56.9386 165.044L-58.9721 162.874C-59.315 162.508 -59.725 162.218 -60.2021 162.004C-60.6857 161.79 -61.08 161.715 -61.3857 161.779L-61.5428 161.643L-60.2421 159.675L-60.045 159.734C-59.6807 159.986 -59.3307 160.258 -58.9964 160.551C-58.9364 159.996 -58.8893 159.604 -58.8536 159.375C-58.825 159.146 -58.7443 158.858 -58.6114 158.511C-58.485 158.164 -58.3143 157.889 -58.0993 157.687C-57.2236 156.866 -56.3014 156.717 -55.3336 157.239C-55.1707 155.657 -54.8421 154.634 -54.3464 154.17C-53.7507 153.611 -53.1021 153.375 -52.4021 153.46C-51.7014 153.539 -51.0078 153.944 -50.3221 154.676L-48.6014 156.512C-47.8443 157.32 -47.0678 157.893 -46.2707 158.232L-46.185 158.324L-47.9836 160.009L-48.0693 159.918C-48.3228 159.36 -48.7807 158.727 -49.4436 158.02L-51.2757 156.065C-52.2079 155.071 -52.9843 154.864 -53.605 155.446C-54.1257 155.934 -54.48 156.681 -54.6693 157.689C-54.4593 157.876 -54.3028 158.026 -54.1986 158.137Z" fill="#97978D"/>
<path d="M-41.26 152.58C-42.0186 153.542 -42.9221 154.064 -43.97 154.145C-45.0221 154.224 -46.0407 153.875 -47.0257 153.098C-48.0107 152.321 -48.6029 151.324 -48.8036 150.108C-49.0064 148.895 -48.7193 147.796 -47.9422 146.811C-47.165 145.826 -46.2671 145.304 -45.2479 145.243C-44.2293 145.175 -43.2221 145.534 -42.2257 146.32C-41.225 147.109 -40.6236 148.11 -40.4207 149.323C-40.225 150.536 -40.5043 151.622 -41.26 152.58ZM-43.0307 148.044C-43.935 147.331 -44.7464 146.923 -45.4664 146.819C-46.1836 146.711 -46.8264 147.018 -47.3964 147.74C-47.765 148.207 -47.9543 148.654 -47.9636 149.079C-47.8857 149.409 -47.6721 149.797 -47.3214 150.243C-46.975 150.685 -46.6043 151.062 -46.2107 151.373C-44.295 152.884 -42.8021 152.961 -41.7321 151.606C-41.4 151.184 -41.2271 150.766 -41.2136 150.351C-41.2893 150.01 -41.5086 149.621 -41.8714 149.184C-42.2386 148.744 -42.625 148.364 -43.0307 148.044Z" fill="#97978D"/>
<path d="M-41.3543 136.981C-40.9172 136.263 -40.3486 135.849 -39.6486 135.739C-38.95 135.622 -38.1721 135.824 -37.3143 136.346L-35.1643 137.653C-34.2186 138.228 -33.3164 138.572 -32.4579 138.685L-32.3507 138.751L-33.6314 140.856L-33.7386 140.791C-34.1321 140.321 -34.7436 139.835 -35.5714 139.331L-37.8607 137.939C-38.4364 137.589 -38.9243 137.411 -39.3229 137.404C-39.7243 137.402 -40.0864 137.666 -40.4086 138.196C-40.7279 138.721 -40.885 139.553 -40.88 140.69L-38.055 142.407C-37.0879 142.995 -36.1886 143.344 -35.3564 143.452L-35.2493 143.517L-36.5222 145.611L-36.6293 145.546C-37.0229 145.076 -37.6343 144.589 -38.4622 144.086L-41.0036 142.541C-41.4322 142.28 -41.905 142.111 -42.4221 142.032C-42.9457 141.956 -43.3457 141.989 -43.6221 142.131L-43.81 142.043L-43.0843 139.799L-42.8793 139.802C-42.4607 139.947 -42.0507 140.116 -41.65 140.308C-41.715 139.761 -41.7543 139.344 -41.7679 139.053C-41.7836 138.766 -41.7621 138.423 -41.7021 138.022C-41.6464 137.619 -41.5307 137.271 -41.3543 136.981Z" fill="#97978D"/>
<path d="M-29.1364 132.316C-29.6329 133.426 -30.3771 134.084 -31.3707 134.292C-32.3636 134.5 -33.4307 134.349 -34.5714 133.839C-35.7122 133.329 -36.52 132.55 -36.9943 131.502C-37.4714 130.448 -37.4721 129.389 -36.9957 128.324C-36.7286 127.727 -36.3614 127.183 -35.8936 126.691L-37.7193 125.875C-38.5679 125.496 -39.3379 125.445 -40.0279 125.724L-40.2164 125.639L-39.6214 123.278L-39.4179 123.256C-39.1264 123.424 -38.6936 123.636 -38.1186 123.894L-30.2093 127.431C-29.7286 127.646 -29.24 127.776 -28.7429 127.82C-28.2457 127.864 -27.8657 127.805 -27.6043 127.642L-27.4271 127.681L-27.7871 129.606C-28.105 129.593 -28.6029 129.532 -29.2814 129.422C-28.8479 130.597 -28.7993 131.561 -29.1364 132.316ZM-31.1314 132.33C-30.6743 132.163 -30.3264 131.814 -30.09 131.284C-29.8507 130.75 -29.8586 130.081 -30.1136 129.276L-34.62 127.261C-35.2714 127.632 -35.7829 128.234 -36.1543 129.064C-36.3693 129.545 -36.4371 129.956 -36.3593 130.299C-35.9071 130.975 -35.1286 131.56 -34.0236 132.055C-32.9143 132.551 -31.95 132.643 -31.1314 132.33Z" fill="#97978D"/>
<path d="M-32.82 120.597C-32.6836 120.864 -32.4421 121.052 -32.095 121.164C-31.7436 121.277 -31.4364 121.255 -31.1736 121.096C-30.9043 120.934 -30.6714 120.699 -30.4743 120.391C-30.275 120.077 -30.0486 119.75 -29.7936 119.409C-29.5328 119.064 -29.2721 118.744 -29.0121 118.45C-28.7536 118.161 -28.4221 117.958 -28.0179 117.84C-27.6143 117.727 -27.1743 117.747 -26.6957 117.901C-25.8529 118.172 -25.3136 118.689 -25.0786 119.452C-24.8479 120.214 -24.8964 121.103 -25.2236 122.119C-25.5493 123.131 -26.0993 123.949 -26.8736 124.573C-27.43 124.358 -27.8821 124.029 -28.2307 123.586C-27 122.876 -26.2521 122.111 -25.9886 121.291C-25.8743 120.936 -25.845 120.596 -25.9014 120.273C-26.045 119.932 -26.3136 119.699 -26.7064 119.572C-27.1043 119.444 -27.46 119.498 -27.7736 119.733C-28.0871 119.968 -28.3743 120.284 -28.6364 120.68C-28.8971 121.071 -29.1743 121.461 -29.4693 121.846C-29.7671 122.225 -30.1314 122.514 -30.5621 122.711C-30.9929 122.909 -31.475 122.921 -32.0086 122.75C-32.7857 122.5 -33.29 122.017 -33.5193 121.303C-33.7493 120.588 -33.7207 119.786 -33.435 118.896C-33.1486 118.006 -32.6786 117.196 -32.025 116.465C-31.5693 116.72 -31.1429 117.072 -30.7443 117.521C-31.7893 118.053 -32.4493 118.747 -32.725 119.604C-32.8428 119.969 -32.8743 120.301 -32.82 120.597Z" fill="#97978D"/>
<path d="M225.467 161.875C225.003 161.875 224.573 161.636 224.327 161.242L208.931 136.56C208.804 136.357 208.733 136.123 208.727 135.884C208.721 135.644 208.779 135.407 208.896 135.198C209.012 134.988 209.182 134.814 209.389 134.692C209.595 134.571 209.83 134.507 210.07 134.507L240.671 134.503C240.91 134.502 241.145 134.565 241.352 134.686C241.558 134.807 241.728 134.981 241.845 135.19C241.962 135.398 242.02 135.635 242.015 135.874C242.01 136.113 241.941 136.346 241.815 136.55L226.609 161.237C226.49 161.432 226.322 161.593 226.123 161.705C225.923 161.816 225.699 161.875 225.47 161.876L225.467 161.875ZM212.49 137.193L225.459 157.984L238.267 137.189L212.49 137.193Z" fill="#97978D"/>
<path d="M194.767 161.875C194.304 161.875 193.876 161.637 193.63 161.246L178.153 136.564C178.025 136.36 177.954 136.127 177.947 135.887C177.941 135.647 177.998 135.41 178.114 135.2C178.231 134.99 178.401 134.815 178.608 134.693C178.814 134.571 179.05 134.507 179.29 134.507L210.07 134.503C210.309 134.503 210.544 134.567 210.75 134.688C210.956 134.809 211.127 134.983 211.243 135.192C211.359 135.401 211.418 135.638 211.412 135.877C211.407 136.116 211.338 136.349 211.212 136.553L195.908 161.239C195.787 161.433 195.62 161.593 195.421 161.705C195.222 161.816 194.997 161.875 194.769 161.875H194.767ZM181.715 137.193L194.759 157.996L207.658 137.189L181.715 137.193Z" fill="#97978D"/>
<path d="M194.787 161.875H164.209C163.97 161.875 163.736 161.812 163.53 161.692C163.324 161.571 163.154 161.398 163.037 161.19C162.92 160.982 162.861 160.746 162.865 160.508C162.87 160.269 162.938 160.036 163.063 159.832L178.144 135.146C178.263 134.95 178.43 134.789 178.63 134.676C178.829 134.564 179.053 134.504 179.282 134.503H179.29C179.753 134.503 180.181 134.741 180.427 135.132L195.795 159.641C195.967 159.835 196.079 160.074 196.118 160.33C196.157 160.586 196.121 160.848 196.015 161.084C195.908 161.321 195.736 161.521 195.518 161.661C195.3 161.801 195.046 161.876 194.787 161.875ZM166.602 159.19H192.341L179.304 138.397L166.602 159.19Z" fill="#97978D"/>
<path d="M225.487 161.875L194.767 161.875C194.528 161.875 194.293 161.811 194.087 161.69C193.881 161.568 193.711 161.394 193.594 161.185C193.478 160.976 193.419 160.74 193.425 160.501C193.43 160.262 193.5 160.028 193.625 159.825L208.928 135.138C209.049 134.944 209.216 134.784 209.416 134.673C209.615 134.561 209.84 134.503 210.068 134.503H210.07C210.534 134.503 210.964 134.742 211.21 135.135L226.496 159.643C226.667 159.837 226.779 160.076 226.817 160.332C226.856 160.588 226.82 160.85 226.713 161.085C226.607 161.321 226.434 161.521 226.217 161.661C225.999 161.801 225.746 161.876 225.487 161.875ZM197.178 159.19H223.047L210.073 138.388L197.178 159.19Z" fill="#97978D"/>
<path d="M255.774 161.875L225.467 161.875C225.228 161.875 224.994 161.81 224.788 161.689C224.582 161.568 224.412 161.395 224.296 161.186C224.179 160.978 224.12 160.742 224.125 160.503C224.13 160.265 224.198 160.032 224.323 159.828L239.527 135.142C239.647 134.946 239.815 134.785 240.015 134.673C240.215 134.561 240.441 134.503 240.67 134.503H240.672C240.902 134.503 241.127 134.563 241.327 134.675C241.527 134.788 241.695 134.95 241.815 135.146L256.788 159.653C256.958 159.847 257.068 160.086 257.105 160.341C257.142 160.596 257.105 160.857 256.998 161.091C256.891 161.326 256.719 161.524 256.502 161.663C256.285 161.802 256.032 161.876 255.774 161.875ZM227.87 159.19H253.36L240.667 138.414L227.87 159.19Z" fill="#97978D"/>
<path d="M71.4666 31.875C71.0027 31.875 70.5731 31.6356 70.3271 31.2425L54.9306 6.56031C54.8037 6.35703 54.7335 6.12348 54.7273 5.88391C54.7212 5.64435 54.7792 5.40749 54.8955 5.19795C55.0118 4.9884 55.1821 4.8138 55.3886 4.69228C55.5952 4.57075 55.8305 4.50673 56.0701 4.50686L86.671 4.50257C86.9101 4.50204 87.1451 4.56546 87.3515 4.68627C87.5579 4.80707 87.7282 4.98087 87.8449 5.18966C87.9616 5.39844 88.0203 5.63462 88.015 5.87372C88.0097 6.11283 87.9406 6.34617 87.8148 6.54957L72.6094 31.2371C72.4896 31.4318 72.322 31.5927 72.1226 31.7046C71.9232 31.8164 71.6985 31.8755 71.4699 31.8761L71.4666 31.875ZM58.4898 7.19289L71.4591 27.984L84.2674 7.18859L58.4898 7.19289Z" fill="#97978D"/>
<path d="M40.767 31.8751C40.3041 31.8751 39.8756 31.6366 39.6296 31.2457C33.5855 21.6067 30.1967 16.2025 24.1525 6.56353C24.0249 6.36035 23.954 6.12666 23.9473 5.8868C23.9406 5.64693 23.9983 5.40965 24.1145 5.19967C24.2306 4.98968 24.4009 4.81465 24.6076 4.69281C24.8143 4.57096 25.0499 4.50675 25.2899 4.50686L56.0701 4.50256C56.3093 4.50275 56.5441 4.56679 56.7503 4.68808C56.9565 4.80936 57.1265 4.98349 57.2429 5.19248C57.3593 5.40146 57.4177 5.63773 57.4122 5.87687C57.4068 6.11601 57.3375 6.34935 57.2117 6.55279L41.9075 31.2393C41.7874 31.4332 41.6199 31.5934 41.4207 31.7047C41.2215 31.8159 40.9973 31.8745 40.7691 31.8751H40.767ZM27.7149 7.19288L40.7595 27.9958L53.658 7.18858L27.7149 7.19288Z" fill="#97978D"/>
<path d="M40.7874 31.875H10.2091C9.97038 31.8755 9.7359 31.8122 9.52982 31.6918C9.32373 31.5714 9.15351 31.3981 9.03673 31.1899C8.91994 30.9818 8.86082 30.7462 8.86546 30.5076C8.87011 30.2689 8.93835 30.0358 9.06314 29.8323L24.144 5.14588C24.2631 4.9505 24.4303 4.78884 24.6295 4.67625C24.8288 4.56365 25.0535 4.50387 25.2824 4.50256H25.2899C25.7528 4.50256 26.1813 4.74099 26.4272 5.13192L41.7948 29.6412C41.9668 29.8349 42.0791 30.0742 42.1181 30.3303C42.1571 30.5864 42.1213 30.8483 42.0148 31.0845C41.9083 31.3206 41.7357 31.5209 41.5179 31.6612C41.3002 31.8015 41.0464 31.8757 40.7874 31.875ZM12.6019 29.1901H38.3409L25.3038 8.39681L12.6019 29.1901Z" fill="#97978D"/>
<path d="M71.4871 31.875L40.767 31.8751C40.5278 31.8749 40.293 31.8108 40.0868 31.6895C39.8806 31.5683 39.7106 31.3941 39.5942 31.1851C39.4778 30.9761 39.4194 30.7399 39.4248 30.5007C39.4303 30.2616 39.4995 30.0283 39.6253 29.8248L54.9285 5.13836C55.0487 4.94423 55.2164 4.78396 55.4158 4.67271C55.6152 4.56145 55.8396 4.50289 56.0679 4.50256H56.0701C56.5341 4.50256 56.9637 4.74206 57.2096 5.13514L72.4955 29.6433C72.6669 29.8372 72.7786 30.0764 72.8173 30.3322C72.8559 30.5881 72.8197 30.8496 72.7132 31.0854C72.6067 31.3212 72.4342 31.5211 72.2167 31.6612C71.9991 31.8013 71.7458 31.8756 71.4871 31.875ZM43.1781 29.1901H69.047L56.0733 8.38821L43.1781 29.1901Z" fill="#97978D"/>
<path d="M101.774 31.8751L71.4666 31.875C71.2279 31.8745 70.9936 31.8105 70.7878 31.6894C70.582 31.5684 70.4121 31.3947 70.2957 31.1863C70.1792 30.9779 70.1203 30.7422 70.1251 30.5035C70.1299 30.2648 70.1982 30.0316 70.3229 29.828L85.5272 5.14158C85.6472 4.94639 85.8153 4.78519 86.0154 4.67333C86.2154 4.56147 86.4407 4.50268 86.6699 4.50256H86.672C86.9016 4.50313 87.1272 4.56257 87.3273 4.6752C87.5273 4.78783 87.6952 4.94988 87.8148 5.14588L102.788 29.653C102.958 29.8471 103.068 30.086 103.105 30.3411C103.142 30.5962 103.105 30.8566 102.998 31.0911C102.891 31.3256 102.719 31.5243 102.502 31.6633C102.285 31.8024 102.032 31.8759 101.774 31.8751ZM73.8702 29.1901H99.36L86.6667 8.41399L73.8702 29.1901Z" fill="#97978D"/>
<path d="M56.2411 79.4974C56.0611 79.4973 55.883 79.461 55.7173 79.3908C55.5516 79.3205 55.4018 79.2176 55.2766 79.0882L32.2462 55.277L9.21587 31.4659C9.03264 31.2764 8.90923 31.0372 8.86102 30.7781C8.81282 30.519 8.84195 30.2514 8.94479 30.0087C9.04763 29.7661 9.21963 29.5591 9.43933 29.4135C9.65904 29.2679 9.91674 29.1902 10.1803 29.1901C45.9421 29.1901 65.9923 29.1901 101.754 29.1901C102.017 29.1904 102.274 29.2677 102.493 29.4126C102.712 29.5574 102.884 29.7634 102.987 30.005C103.09 30.2466 103.121 30.5132 103.074 30.7717C103.027 31.0302 102.905 31.2693 102.724 31.4594L79.9674 55.2706L57.2109 79.0818C56.9596 79.346 56.6094 79.4963 56.2454 79.4974H56.2411ZM13.3464 31.875L56.2346 76.2175L98.6138 31.875H13.3464Z" fill="#97978D"/>
<path d="M56.2411 79.4974C55.9578 79.4973 55.6817 79.4075 55.4525 79.2411C55.2233 79.0746 55.0527 78.8399 54.965 78.5705L39.49 30.9482C39.4315 30.7796 39.4073 30.601 39.4187 30.4228C39.43 30.2447 39.4768 30.0707 39.5563 29.9108C39.6357 29.751 39.7462 29.6086 39.8813 29.492C40.0165 29.3754 40.1735 29.2869 40.3432 29.2317C40.513 29.1765 40.692 29.1557 40.8699 29.1706C41.0477 29.1854 41.2209 29.2355 41.3791 29.318C41.5374 29.4006 41.6776 29.5138 41.7916 29.6512C41.9055 29.7885 41.991 29.9472 42.0429 30.118L57.5168 77.7404C57.5821 77.9418 57.5989 78.1558 57.5658 78.3649C57.5327 78.574 57.4506 78.7724 57.3262 78.9437C57.2018 79.1151 57.0386 79.2545 56.8499 79.3508C56.6613 79.447 56.4528 79.4972 56.2411 79.4974Z" fill="#97978D"/>
<path d="M56.286 79.4974C56.0748 79.4971 55.8666 79.4471 55.6783 79.3514C55.49 79.2557 55.327 79.117 55.2023 78.9465C55.0776 78.776 54.9949 78.5786 54.9607 78.3701C54.9266 78.1617 54.942 77.9482 55.0058 77.7468L70.1865 30.1245C70.2946 29.7851 70.5331 29.5025 70.8495 29.339C71.1659 29.1754 71.5343 29.1443 71.8737 29.2524C72.2131 29.3605 72.4956 29.599 72.6592 29.9154C72.8227 30.2318 72.8539 30.6002 72.7458 30.9396L57.5651 78.563C57.3825 79.1333 56.8552 79.4974 56.286 79.4974Z" fill="#97978D"/>
<path d="M47.4666 693.875C47.0027 693.875 46.5731 693.636 46.3271 693.242L30.9306 668.56C30.8037 668.357 30.7335 668.123 30.7273 667.884C30.7212 667.644 30.7792 667.407 30.8955 667.198C31.0118 666.988 31.1821 666.814 31.3886 666.692C31.5952 666.571 31.8305 666.507 32.0701 666.507L62.671 666.503C62.9101 666.502 63.1451 666.565 63.3515 666.686C63.5579 666.807 63.7282 666.981 63.8449 667.19C63.9616 667.398 64.0203 667.635 64.015 667.874C64.0097 668.113 63.9406 668.346 63.8148 668.55L48.6094 693.237C48.4896 693.432 48.322 693.593 48.1226 693.705C47.9232 693.816 47.6985 693.875 47.4699 693.876L47.4666 693.875ZM34.4898 669.193L47.4591 689.984L60.2674 669.189L34.4898 669.193Z" fill="#97978D"/>
<path d="M16.767 693.875C16.3041 693.875 15.8756 693.637 15.6296 693.246C9.58546 683.607 6.19672 678.203 0.152542 668.564C0.0248841 668.36 -0.0459775 668.127 -0.0526733 667.887C-0.0593692 667.647 -0.00165291 667.41 0.114471 667.2C0.230596 666.99 0.400883 666.815 0.607605 666.693C0.814327 666.571 1.04993 666.507 1.28989 666.507L32.0701 666.503C32.3093 666.503 32.5441 666.567 32.7503 666.688C32.9565 666.809 33.1265 666.984 33.2429 667.193C33.3593 667.401 33.4177 667.638 33.4122 667.877C33.4068 668.116 33.3375 668.349 33.2117 668.553L17.9075 693.239C17.7874 693.433 17.6199 693.593 17.4207 693.705C17.2215 693.816 16.9973 693.875 16.7691 693.875H16.767ZM3.71494 669.193L16.7595 689.996L29.658 669.189L3.71494 669.193Z" fill="#97978D"/>
<path d="M16.7874 693.875H-13.7909C-14.0296 693.876 -14.2641 693.812 -14.4702 693.692C-14.6763 693.571 -14.8465 693.398 -14.9633 693.19C-15.0801 692.982 -15.1392 692.746 -15.1345 692.508C-15.1299 692.269 -15.0617 692.036 -14.9369 691.832L0.143951 667.146C0.263138 666.95 0.4303 666.789 0.629547 666.676C0.828795 666.564 1.05351 666.504 1.28236 666.503H1.28989C1.75277 666.503 2.18127 666.741 2.42722 667.132L17.7948 691.641C17.9668 691.835 18.0791 692.074 18.1181 692.33C18.1571 692.586 18.1213 692.848 18.0148 693.084C17.9083 693.321 17.7357 693.521 17.5179 693.661C17.3002 693.801 17.0464 693.876 16.7874 693.875ZM-11.3981 691.19H14.3409L1.30383 670.397L-11.3981 691.19Z" fill="#97978D"/>
<path d="M47.4871 693.875C35.4901 693.875 28.7639 693.875 16.767 693.875C16.5278 693.875 16.293 693.811 16.0868 693.69C15.8806 693.568 15.7106 693.394 15.5942 693.185C15.4778 692.976 15.4194 692.74 15.4248 692.501C15.4303 692.262 15.4995 692.028 15.6253 691.825L30.9285 667.138C31.0487 666.944 31.2164 666.784 31.4158 666.673C31.6152 666.561 31.8396 666.503 32.0679 666.503H32.0701C32.5341 666.503 32.9637 666.742 33.2096 667.135L48.4955 691.643C48.6669 691.837 48.7786 692.076 48.8173 692.332C48.8559 692.588 48.8197 692.85 48.7132 693.085C48.6067 693.321 48.4342 693.521 48.2167 693.661C47.9991 693.801 47.7458 693.876 47.4871 693.875ZM19.1781 691.19H45.047L32.0733 670.388L19.1781 691.19Z" fill="#97978D"/>
<path d="M77.7743 693.875H47.4666C47.2279 693.875 46.9936 693.81 46.7878 693.689C46.582 693.568 46.4121 693.395 46.2957 693.186C46.1792 692.978 46.1203 692.742 46.1251 692.503C46.1299 692.265 46.1982 692.032 46.3229 691.828L61.5272 667.142C61.6472 666.946 61.8153 666.785 62.0154 666.673C62.2154 666.561 62.4407 666.503 62.6699 666.503H62.672C62.9016 666.503 63.1272 666.563 63.3273 666.675C63.5273 666.788 63.6952 666.95 63.8148 667.146L78.7881 691.653C78.9577 691.847 79.0677 692.086 79.105 692.341C79.1422 692.596 79.1051 692.857 78.9981 693.091C78.8911 693.326 78.7188 693.524 78.5017 693.663C78.2847 693.802 78.0321 693.876 77.7743 693.875ZM49.8702 691.19H75.36L62.6667 670.414L49.8702 691.19Z" fill="#97978D"/>
<path d="M32.2411 741.497C32.0611 741.497 31.883 741.461 31.7173 741.391C31.5516 741.32 31.4018 741.218 31.2766 741.088L8.24625 717.277L-14.7841 693.466C-14.9674 693.276 -15.0908 693.037 -15.139 692.778C-15.1872 692.519 -15.158 692.251 -15.0552 692.009C-14.9524 691.766 -14.7804 691.559 -14.5607 691.413C-14.341 691.268 -14.0833 691.19 -13.8197 691.19C21.9421 691.19 41.9923 691.19 77.7541 691.19C78.0168 691.19 78.2737 691.268 78.4929 691.413C78.7121 691.557 78.8839 691.763 78.9872 692.005C79.0904 692.247 79.1205 692.513 79.0737 692.772C79.0269 693.03 78.9053 693.269 78.7239 693.459L55.9674 717.271L33.2109 741.082C32.9596 741.346 32.6094 741.496 32.2454 741.497H32.2411ZM-10.6536 693.875L32.2346 738.217L74.6138 693.875H-10.6536Z" fill="#97978D"/>
<path d="M32.2411 741.497C31.9578 741.497 31.6817 741.408 31.4525 741.241C31.2233 741.075 31.0527 740.84 30.965 740.571L15.49 692.948C15.4315 692.78 15.4073 692.601 15.4187 692.423C15.43 692.245 15.4768 692.071 15.5563 691.911C15.6357 691.751 15.7462 691.609 15.8813 691.492C16.0165 691.375 16.1735 691.287 16.3432 691.232C16.513 691.177 16.692 691.156 16.8699 691.171C17.0477 691.185 17.2209 691.236 17.3791 691.318C17.5374 691.401 17.6776 691.514 17.7916 691.651C17.9055 691.789 17.991 691.947 18.0429 692.118L33.5168 739.74C33.5821 739.942 33.5989 740.156 33.5658 740.365C33.5327 740.574 33.4506 740.772 33.3262 740.944C33.2018 741.115 33.0386 741.255 32.8499 741.351C32.6613 741.447 32.4528 741.497 32.2411 741.497Z" fill="#97978D"/>
<path d="M32.286 741.497C32.0748 741.497 31.8666 741.447 31.6783 741.351C31.49 741.256 31.327 741.117 31.2023 740.946C31.0776 740.776 30.9949 740.579 30.9607 740.37C30.9266 740.162 30.942 739.948 31.0058 739.747L46.1865 692.124C46.2946 691.785 46.5331 691.503 46.8495 691.339C47.1659 691.175 47.5343 691.144 47.8737 691.252C48.2131 691.36 48.4956 691.599 48.6592 691.915C48.8227 692.232 48.8539 692.6 48.7458 692.94L33.5651 740.563C33.3825 741.133 32.8552 741.497 32.286 741.497Z" fill="#97978D"/>
</svg>
